HIERARCHY
ROOT Hips
{
   OFFSET 0.00000 0.00000 0.00000
   CHANNELS 6 Xposition Yposition Zposition Zrotation Xrotation Yrotation
   JOINT RightUpLeg
   {
      OFFSET -8.051219 -7.800363 0.091487
      CHANNELS 3 Zrotation Xrotation Yrotation
      JOINT RightLeg
      {
         OFFSET 0.000000 -39.980428 1.235430
         CHANNELS 3 Zrotation Xrotation Yrotation
         JOINT RightFoot
         {
            OFFSET 0.228194 -37.883157 -1.314531
            CHANNELS 3 Zrotation Xrotation Yrotation
            JOINT RightToes
            {
               OFFSET 0.036000 -3.973581 7.649189
               CHANNELS 3 Zrotation Xrotation Yrotation
               End Site
               {
                  OFFSET -0.072000 -0.123703 8.801811
               }
            }
         }
      }
   }
   JOINT Spine
   {
      OFFSET 0.000000 10.701450 0.000000
      CHANNELS 3 Zrotation Xrotation Yrotation
      JOINT Spine1
      {
         OFFSET 0.000000 23.091659 0.114897
         CHANNELS 3 Zrotation Xrotation Yrotation
         JOINT HEad
         {
            OFFSET 0.000000 7.860744 0.010207
            CHANNELS 3 Zrotation Xrotation Yrotation
            End Site
            {
               OFFSET -0.261000 11.496780 2.262555
            }
         }
         JOINT LeftShoulder1
         {
            OFFSET 8.091000 -0.326027 -0.198000
            CHANNELS 3 Zrotation Xrotation Yrotation
            JOINT LeftArm
            {
               OFFSET 9.254430 -0.003042 0.289911
               CHANNELS 3 Zrotation Xrotation Yrotation
               JOINT LeftForeArm
               {
                  OFFSET 29.490208 0.089230 -1.281906
                  CHANNELS 3 Zrotation Xrotation Yrotation
                  JOINT LeftHand
                  {
                     OFFSET 24.807870 0.076826 0.919944
                     CHANNELS 3 Zrotation Xrotation Yrotation
                     End Site
                     {
                        OFFSET 15.069871 -0.540000 1.352619
                     }
                  }
               }
            }
         }
         JOINT RightShoulder
         {
            OFFSET -8.091000 -0.326027 -0.198000
            CHANNELS 3 Zrotation Xrotation Yrotation
            JOINT RightArm
            {
               OFFSET -9.254430 -0.003042 0.289911
               CHANNELS 3 Zrotation Xrotation Yrotation
               JOINT RightForeArm
               {
                  OFFSET -29.607386 0.089230 -1.281906
                  CHANNELS 3 Zrotation Xrotation Yrotation
                  JOINT RightHand
                  {
                     OFFSET -24.742889 0.076826 0.919944
                     CHANNELS 3 Zrotation Xrotation Yrotation
                     End Site
                     {
                        OFFSET -14.968080 -0.540000 1.352619
                     }
                  }
               }
            }
         }
      }
   }
   JOINT LeftUpLeg
   {
      OFFSET 8.051219 -7.800363 0.091487
      CHANNELS 3 Zrotation Xrotation Yrotation
      JOINT LeftLeg
      {
         OFFSET 0.000000 -39.980428 1.235430
         CHANNELS 3 Zrotation Xrotation Yrotation
         JOINT LeftFoot
         {
            OFFSET -0.228194 -37.883157 -1.314531
            CHANNELS 3 Zrotation Xrotation Yrotation
            JOINT LeftToes
            {
               OFFSET -0.036000 -3.973581 7.649189
               CHANNELS 3 Zrotation Xrotation Yrotation
               End Site
               {
                  OFFSET 0.072000 -0.042703 8.801811
               }
            }
         }
      }
   }
}
MOTION
Frames: 9
Frame Time: 0.016667
-330.487552 84.823703 -14.596934 -22.040223 14.019469 -121.842761 -29.587843 24.824101 -23.550859 -2.704897 27.453665 -0.684407 -38.055830 0.019996 48.541413 7.595886 -12.365597 -34.619036 -1.300565 13.949312 48.189840 15.264073 17.239259 -43.075134 0.918266 16.488512 0.260147 -4.043867 153.241496 48.829323 232.601901 109.015270 -223.100329 -3.182562 91.558939 -53.846196 -38.338729 -51.415571 -85.136368 19.358484 -4.795105 28.062985 57.321584 -32.757895 47.444922 45.314880 31.875742 98.744298 9.592395 10.002837 -10.049217 20.687822 -2.860611 -96.592084 -16.591083 -11.572987 84.339558 -41.218863 -5.051312 59.419900 -9.275421 -11.224631 -13.953078
-331.871180 85.556382 -13.963587 -22.060261 13.961761 -121.746169 -29.363376 24.480105 -23.678577 -2.928135 27.613292 -0.797432 -38.150756 0.371020 48.448130 7.657729 -12.428667 -34.734995 -2.593427 13.624451 48.679749 14.739171 16.721845 -43.349940 0.335040 15.826416 0.128949 -4.118613 152.641751 48.501877 232.939968 108.456669 -222.878894 -3.934647 91.987786 -53.014364 -38.152549 -51.132671 -85.658372 19.631733 -4.855250 28.184485 57.421660 -33.208110 46.894825 44.560591 30.978794 97.924292 8.665647 10.032085 -11.022122 20.811554 -2.416332 -94.202802 -16.966863 -12.964393 83.002433 -40.156738 -4.722979 59.226531 -9.251285 -11.060861 -13.784395
-333.218036 86.238030 -13.378702 -22.236733 13.588080 -121.290376 -29.231478 24.155261 -23.590565 -3.173971 27.717901 -1.146708 -38.275782 0.834743 48.279493 7.754647 -12.474099 -34.845252 -2.659993 13.212469 49.367084 14.400714 16.319480 -43.987166 0.545141 14.745972 -0.238927 -4.822353 151.741996 47.809514 233.646428 106.734970 -222.358352 -4.951858 92.622549 -52.603487 -38.063244 -50.555537 -86.155979 20.137768 -4.674972 28.150244 57.418914 -33.389219 46.258023 44.869524 31.092544 98.135072 8.477904 9.904083 -9.451522 20.709115 -1.808025 -92.400841 -16.928209 -14.289321 81.884139 -39.487916 -4.037138 59.025853 -9.201662 -10.736830 -13.545953
-334.537883 86.833571 -12.820824 -21.967053 13.552015 -120.897681 -28.454829 23.852019 -23.621810 -3.050346 27.518171 -1.686255 -38.480343 1.573776 48.069198 7.864007 -12.493692 -34.925541 -3.096825 14.144650 50.361751 14.037232 15.680248 -44.689508 1.111302 13.859472 -0.738773 -5.491367 149.708061 46.541066 234.863322 104.118468 -222.063657 -5.710378 92.874617 -51.924198 -37.899258 -50.191423 -85.781787 20.209563 -4.195583 28.796060 56.604042 -32.925757 45.633662 44.660640 32.218600 97.464716 8.202472 9.721450 -7.150776 21.142772 -1.628859 -90.872347 -16.919149 -15.463473 81.088006 -39.080686 -3.125845 58.885199 -9.187615 -10.523542 -13.250201
-335.681643 87.363738 -12.265760 -22.760659 13.893985 -120.222927 -27.938899 24.170400 -23.216301 -3.036186 27.767087 -2.221919 -38.764691 2.309348 47.733603 7.920464 -12.585715 -34.955856 -2.376837 12.934165 51.383363 13.682144 15.487447 -45.951788 1.914493 11.945997 -1.336931 -7.380748 147.942266 45.035122 -123.865016 100.203117 -221.069536 -6.673119 93.332097 -51.582699 -37.894982 -49.568793 -85.006547 21.702112 -3.139093 27.617906 57.110084 -33.646519 44.357994 46.224347 32.829714 98.812388 8.544877 9.471781 -3.851593 21.098367 -0.263336 -89.597124 -16.897183 -16.327501 80.618847 -38.797261 -2.646975 58.605325 -9.241050 -10.600548 -13.003508
-336.788859 87.890080 -11.738450 -22.495134 13.899038 -119.691607 -27.083812 23.490699 -23.112047 -2.396277 27.935832 -2.818464 -39.158434 3.371063 47.422939 8.005917 -12.589838 -34.902065 -2.097800 14.117638 52.976368 13.530235 14.987851 -46.967263 3.057287 11.086749 -2.051821 -8.302965 145.200560 43.175350 -122.948473 96.119572 -220.428400 -7.876482 93.131835 -51.488602 -37.591206 -49.282236 -84.345747 21.775012 -3.490008 27.345369 57.019300 -32.420910 44.463599 46.621669 33.288488 98.350667 8.242308 9.109596 0.314355 21.454061 0.214876 -88.570341 -16.733991 -17.380764 80.125687 -38.631898 -2.736694 57.821991 -9.235110 -10.878586 -13.096414
-337.882228 88.339156 -11.239784 -22.228746 13.377121 -118.871451 -26.590295 22.470428 -22.991291 -1.501865 28.424773 -3.444875 -39.727478 4.829375 47.190935 8.147219 -12.432533 -34.671406 -1.805816 15.113370 55.175996 12.224282 14.392962 -48.123296 4.663549 9.563841 -2.886320 -10.207410 143.280758 40.707606 -122.947790 91.013596 -218.843496 -9.339769 92.478965 -51.630967 -36.866066 -49.453568 -83.140683 21.680327 -5.227752 25.180764 57.845186 -32.562018 44.579456 45.226098 29.915867 95.457433 6.475968 8.776748 1.917308 21.402338 0.088831 -87.742085 -16.843221 -18.354906 79.903221 -38.645507 -2.627368 57.150553 -9.252917 -10.960437 -13.102972
-338.976855 88.774098 -10.699742 -21.355220 13.101966 -119.155123 -26.125151 21.360286 -22.849090 -0.962477 27.884252 -3.317013 -39.994111 5.342478 46.816575 8.063743 -12.469278 -34.069533 -4.040447 15.597352 56.781852 11.696063 12.460792 -49.883897 5.633579 7.530544 -3.624518 -10.364495 140.389648 37.792963 -123.624184 85.112872 -217.727320 -9.367009 91.440018 -50.130641 -35.953347 -49.900754 -80.764549 21.271091 -6.109392 24.592931 59.245102 -29.539988 44.016618 43.987948 28.363882 92.857439 4.506974 8.386952 3.397752 21.644817 -0.412557 -87.109029 -17.394347 -18.997427 79.964030 -38.772494 -2.188552 56.688924 -9.257911 -10.622228 -12.951809
-339.858966 89.661358 -10.185072 -21.687251 12.229633 -119.183372 -26.555945 20.798302 -22.851219 -1.742821 27.379981 -1.837152 -39.795069 5.542979 46.374304 7.911640 -12.435350 -33.127838 -4.833508 14.224701 59.116428 11.534573 11.463945 -51.137121 7.013402 5.507840 -4.548651 -10.551286 137.422955 35.141320 -124.059868 77.276883 -216.487408 -9.197698 90.668282 -49.376892 -35.707420 -47.687049 -81.426216 23.251265 -8.796736 23.157329 57.746729 -28.861664 41.021242 42.813487 27.758818 91.280718 -0.023231 12.044986 6.595366 19.804897 -1.082785 -85.896445 -18.515302 -18.574681 78.874034 -37.221321 -1.471191 56.993544 -9.378105 -9.967325 -12.279109
